<?xml version="1.0" encoding="UTF-8" standalone="no"?>
<!DOCTYPE svg PUBLIC "-//W3C//DTD SVG 1.1//EN" "http://www.w3.org/Graphics/SVG/1.1/DTD/svg11.dtd">
<!-- Generated by Microsoft Visio, SVG Export qPALACE_flow_RSFQ.svg Page-1 -->
<svg xmlns="http://www.w3.org/2000/svg" xmlns:xlink="http://www.w3.org/1999/xlink" xmlns:ev="http://www.w3.org/2001/xml-events"
		xmlns:v="http://schemas.microsoft.com/visio/2003/SVGExtensions/" width="11.1435in" height="3.67298in"
		viewBox="0 0 802.332 264.455" xml:space="preserve" color-interpolation-filters="sRGB" class="st33">
	<v:documentProperties v:langID="1033" v:viewMarkup="false"/>

	<style type="text/css">
	<![CDATA[
		.st1 {fill:#b5c6e7;stroke:#c8c8c8;stroke-width:0.75}
		.st2 {fill:#cbffff;stroke:#c8c8c8;stroke-width:1.5}
		.st3 {fill:#f2f2f2;stroke:#c8c8c8;stroke-dasharray:11.25,6.75;stroke-width:0.75}
		.st4 {fill:#fee599;stroke:#c8c8c8;stroke-width:0.75}
		.st5 {fill:#ffffff;stroke:#c8c8c8;stroke-width:1.5}
		.st6 {fill:none;stroke:none;stroke-width:0.25}
		.st7 {fill:#000000;font-family:Calibri;font-size:1.16666em}
		.st8 {fill:none;stroke:#c8c8c8;stroke-width:0.75}
		.st9 {fill:#000000;font-family:Calibri;font-size:1.00001em}
		.st10 {font-size:1em}
		.st11 {marker-end:url(#mrkr4-27);stroke:#000000;stroke-linecap:round;stroke-linejoin:round;stroke-width:1}
		.st12 {fill:#000000;fill-opacity:1;stroke:#000000;stroke-opacity:1;stroke-width:0.28409090909091}
		.st13 {fill:#000000;font-family:Calibri;font-size:1.5em}
		.st14 {fill:#ffffff;stroke:#000000;stroke-width:0.75}
		.st15 {fill:#000000;font-family:Calibri;font-size:0.833336em}
		.st16 {fill:#ffffff;stroke:none;stroke-linecap:butt;stroke-width:7.2}
		.st17 {fill:#000000;font-family:Calibri;font-size:0.666664em;font-weight:bold}
		.st18 {fill:#ffffff;stroke:#000000;stroke-width:1}
		.st19 {fill:#c5e0b3;stroke:#c8c8c8;stroke-width:0.75}
		.st20 {fill:#f2f2f2;stroke:#000000;stroke-width:1.5}
		.st21 {fill:#ededed;stroke:#c8c8c8;stroke-width:0.75}
		.st22 {fill:#ffffff;stroke:#000000;stroke-width:1.5}
		.st23 {fill:#000000;font-family:Calibri;font-size:0.666664em}
		.st24 {fill:#000000;font-family:Calibri;font-size:0.75em}
		.st25 {fill:#000000;stroke:none;stroke-linecap:butt;stroke-width:0.75}
		.st26 {fill:#ffffff;stroke:#000000;stroke-width:2.25}
		.st27 {fill:url(#grad0-140);stroke:#3d64ac;stroke-width:0.75}
		.st28 {fill:#ffffff;stroke:#e9ebf5;stroke-width:1}
		.st29 {fill:#f2f2f2;stroke:#e9ebf5;stroke-dasharray:7,5;stroke-width:1}
		.st30 {fill:#000000;font-family:Calibri;font-size:0.499992em}
		.st31 {fill:#ffffff;stroke:none;stroke-linecap:butt}
		.st32 {fill:#000000;font-family:Calibri;font-size:0.75em;font-weight:bold}
		.st33 {fill:none;fill-rule:evenodd;font-size:12px;overflow:visible;stroke-linecap:square;stroke-miterlimit:3}
	]]>
	</style>

	<defs id="Patterns_And_Gradients">
		<linearGradient id="grad0-140" x1="0" y1="0" x2="1" y2="0" gradientTransform="rotate(60 0.5 0.5)">
			<stop offset="0" stop-color="#e8ebf4" stop-opacity="1"/>
			<stop offset="0.24" stop-color="#f4f5f9" stop-opacity="1"/>
			<stop offset="0.54" stop-color="#feffff" stop-opacity="1"/>
		</linearGradient>
	</defs>
	<defs id="Markers">
		<g id="lend4">
			<path d="M 2 1 L 0 0 L 2 -1 L 2 1 " style="stroke:none"/>
		</g>
		<marker id="mrkr4-27" class="st12" v:arrowType="4" v:arrowSize="2" v:setback="7.04" refX="-7.04" orient="auto"
				markerUnits="strokeWidth" overflow="visible">
			<use xlink:href="#lend4" transform="scale(-3.52,-3.52) "/>
		</marker>
	</defs>
	<g v:mID="0" v:index="1" v:groupContext="foregroundPage">
		<title>Page-1</title>
		<v:pageProperties v:drawingScale="0.0393701" v:pageScale="0.0393701" v:drawingUnits="24" v:shadowOffsetX="4.25197"
				v:shadowOffsetY="-4.25197"/>
		<v:layer v:name="Connector" v:index="0"/>
		<g id="shape1-1" v:mID="1" v:groupContext="shape" transform="translate(377.758,-14.9232)">
			<title>Sheet.1</title>
			<rect x="0" y="143.982" width="82.0962" height="120.472" class="st1"/>
		</g>
		<g id="shape2-3" v:mID="2" v:groupContext="shape" transform="translate(272.096,-192.089)">
			<title>Sheet.2</title>
			<rect x="0" y="193.589" width="353.055" height="70.8661" class="st2"/>
		</g>
		<g id="shape3-5" v:mID="3" v:groupContext="shape" transform="translate(501.369,-14.9232)">
			<title>Sheet.3</title>
			<path d="M0 264.45 L49.61 264.45 L49.61 203.23 L0 203.23 L0 264.45 Z" class="st3"/>
		</g>
		<g id="shape4-7" v:mID="4" v:groupContext="shape" transform="translate(278.545,-15.2067)">
			<title>Sheet.4</title>
			<rect x="0" y="143.982" width="73.7008" height="120.472" class="st1"/>
		</g>
		<g id="shape5-9" v:mID="5" v:groupContext="shape" transform="translate(105.348,-29.0964)">
			<title>Sheet.5</title>
			<rect x="0" y="175.744" width="151.937" height="88.7106" class="st4"/>
		</g>
		<g id="shape6-11" v:mID="6" v:groupContext="shape" transform="translate(340.12,-230.484)">
			<title>Sheet.6</title>
			<rect x="0" y="236.108" width="100" height="28.3465" class="st5"/>
		</g>
		<g id="shape7-13" v:mID="7" v:groupContext="shape" transform="translate(339.161,-239.258)">
			<title>Sheet.7</title>
			<desc>Cell Library</desc>
			<v:textBlock v:margins="rect(2,2,2,2)" v:tabSpace="42.5197"/>
			<v:textRect cx="50" cy="258.455" width="100" height="12"/>
			<rect x="0" y="252.455" width="100" height="12" class="st6"/>
			<text x="18.36" y="262.65" class="st7" v:langID="2052"><v:paragraph v:horizAlign="1"/><v:tabList/>Cell Library</text>		</g>
		<g id="shape8-16" v:mID="8" v:groupContext="shape" transform="translate(0.75,-29.0966)">
			<title>Sheet.8</title>
			<rect x="0" y="175.744" width="88.4409" height="88.7106" class="st8"/>
		</g>
		<g id="shape9-18" v:mID="9" v:groupContext="shape" transform="translate(0.75,-89.4607)">
			<title>Sheet.9</title>
			<desc>High-level description</desc>
			<v:textBlock v:margins="rect(2,2,2,2)" v:tabSpace="42.5197"/>
			<v:textRect cx="44.2205" cy="250.281" width="88.45" height="28.3465"/>
			<rect x="0" y="236.108" width="88.4409" height="28.3465" class="st6"/>
			<text x="19.86" y="246.68" class="st9" v:langID="2052"><v:paragraph v:horizAlign="1"/><v:tabList/>High-level <tspan
						x="16.87" dy="1.2em" class="st10">description</tspan></text>		</g>
		<g id="shape10-22" v:mID="10" v:groupContext="shape" v:layerMember="0" transform="translate(89.1909,-66.3652)">
			<title>Dynamic connector.1005</title>
			<path d="M0 257.37 L9.12 257.37" class="st11"/>
		</g>
		<g id="shape11-28" v:mID="11" v:groupContext="shape" transform="translate(105.348,-102.136)">
			<title>Sheet.11</title>
			<desc>Synthesis</desc>
			<v:textBlock v:margins="rect(2,2,2,2)" v:tabSpace="42.5197"/>
			<v:textRect cx="50" cy="258.455" width="100" height="12"/>
			<rect x="0" y="252.455" width="100" height="12" class="st6"/>
			<text x="15.74" y="263.85" class="st13" v:langID="2052"><v:paragraph v:horizAlign="1"/><v:tabList/>Synthesis</text>		</g>
		<g id="shape12-31" v:mID="12" v:groupContext="shape" transform="translate(115.007,-62.8219)">
			<title>Sheet.12</title>
			<desc>qYosys</desc>
			<v:textBlock v:margins="rect(2,2,2,2)" v:tabSpace="42.5197"/>
			<v:textRect cx="22.1102" cy="253.825" width="44.23" height="21.2598"/>
			<rect x="0" y="243.195" width="44.2205" height="21.2598" class="st14"/>
			<text x="8.24" y="256.82" class="st15" v:langID="2052"><v:paragraph v:horizAlign="1"/><v:tabList/>qYosys</text>		</g>
		<g id="shape13-34" v:mID="13" v:groupContext="shape" v:layerMember="0" transform="translate(257.285,-64.5295)">
			<title>Dynamic connector.1017</title>
			<desc>.blif/ .level</desc>
			<v:textBlock v:margins="rect(4,4,4,4)" v:tabSpace="42.5197"/>
			<v:textRect cx="11.0551" cy="245.03" width="40" height="27.2035"/>
			<path d="M0 257.37 L14.22 257.37" class="st11"/>
			<rect v:rectContext="textBkgnd" x="2.10187" y="235.431" width="17.9063" height="19.1997" class="st16"/>
			<text x="2.89" y="242.63" class="st17" v:langID="2052"><v:paragraph v:horizAlign="1"/><v:tabList/>.blif/<v:lf/><tspan
						x="2.1" dy="1.2em" class="st10">.level</tspan></text>		</g>
		<g id="shape14-42" v:mID="14" v:groupContext="shape" transform="translate(278.545,-116.404)">
			<title>Sheet.14</title>
			<desc>Placement</desc>
			<v:textBlock v:margins="rect(2,2,2,2)" v:tabSpace="42.5197"/>
			<v:textRect cx="35.4331" cy="258.455" width="70.87" height="12"/>
			<rect x="0" y="252.455" width="70.8661" height="12" class="st6"/>
			<text x="5.32" y="262.65" class="st7" v:langID="2052"><v:paragraph v:horizAlign="1"/><v:tabList/>Placement  </text>		</g>
		<g id="shape15-45" v:mID="15" v:groupContext="shape" transform="translate(289.072,-85.7894)">
			<title>Sheet.15</title>
			<desc>qFloorplan</desc>
			<v:textBlock v:margins="rect(2,2,2,2)" v:tabSpace="42.5197"/>
			<v:textRect cx="27.0202" cy="253.825" width="54.05" height="21.2598"/>
			<rect x="0" y="243.195" width="54.0405" height="21.2598" class="st18"/>
			<text x="5.14" y="256.82" class="st15" v:langID="2052"><v:paragraph v:horizAlign="1"/><v:tabList/>qFloorplan</text>		</g>
		<g id="shape16-48" v:mID="16" v:groupContext="shape" transform="translate(289.072,-54.0413)">
			<title>Sheet.16</title>
			<desc>qPlaceL</desc>
			<v:textBlock v:margins="rect(2,2,2,2)" v:tabSpace="42.5197"/>
			<v:textRect cx="27.0202" cy="253.825" width="54.05" height="21.2598"/>
			<rect x="0" y="243.195" width="54.0405" height="21.2598" class="st18"/>
			<text x="11.56" y="256.82" class="st15" v:langID="2052"><v:paragraph v:horizAlign="1"/><v:tabList/>qPlaceL</text>		</g>
		<g id="shape17-51" v:mID="17" v:groupContext="shape" transform="translate(289.072,-22.1516)">
			<title>Sheet.17</title>
			<desc>qPlace</desc>
			<v:textBlock v:margins="rect(2,2,2,2)" v:tabSpace="42.5197"/>
			<v:textRect cx="27.0202" cy="253.825" width="54.05" height="21.2598"/>
			<rect x="0" y="243.195" width="54.0405" height="21.2598" class="st18"/>
			<text x="13.67" y="256.82" class="st15" v:langID="2052"><v:paragraph v:horizAlign="1"/><v:tabList/>qPlace</text>		</g>
		<g id="shape18-54" v:mID="18" v:groupContext="shape" v:layerMember="0" transform="translate(309.005,-87.6319)">
			<title>Dynamic connector.1023</title>
			<path d="M7.09 266.3 L7.09 269.75" class="st11"/>
		</g>
		<g id="shape19-59" v:mID="19" v:groupContext="shape" transform="translate(379.697,-58.5149)">
			<title>Sheet.19</title>
			<desc>qGDR</desc>
			<v:textBlock v:margins="rect(2,2,2,2)" v:tabSpace="42.5197"/>
			<v:textRect cx="14.4795" cy="253.825" width="28.96" height="21.2598"/>
			<rect x="0" y="243.195" width="28.959" height="21.2598" class="st18"/>
			<text x="2.91" y="256.82" class="st15" v:langID="2052"><v:paragraph v:horizAlign="1"/><v:tabList/>qGDR</text>		</g>
		<g id="shape20-62" v:mID="20" v:groupContext="shape" transform="translate(562.01,-0.75)">
			<title>Sheet.20</title>
			<rect x="0" y="120.869" width="82.0962" height="143.586" class="st19"/>
		</g>
		<g id="shape21-64" v:mID="21" v:groupContext="shape" transform="translate(540.256,-123.868)">
			<title>Sheet.21</title>
			<desc>Analysis &#38; validation</desc>
			<v:textBlock v:margins="rect(2,2,2,2)" v:tabSpace="42.5197"/>
			<v:textRect cx="50" cy="258.455" width="100" height="12"/>
			<rect x="0" y="252.455" width="100" height="12" class="st6"/>
			<text x="24.89" y="254.85" class="st9" v:langID="2052"><v:paragraph v:horizAlign="1"/><v:tabList/>Analysis &#38; <tspan
						x="25.93" dy="1.2em" class="st10">validation</tspan></text>		</g>
		<g id="shape22-68" v:mID="22" v:groupContext="shape" transform="translate(568.018,-78.7028)">
			<title>Sheet.22</title>
			<rect x="0" y="236.108" width="67.7916" height="28.3465" class="st20"/>
		</g>
		<g id="shape23-70" v:mID="23" v:groupContext="shape" transform="translate(568.577,-29.0964)">
			<title>Sheet.23</title>
			<rect x="0" y="236.108" width="67.7916" height="28.3465" class="st20"/>
		</g>
		<g id="shape24-72" v:mID="24" v:groupContext="shape" transform="translate(568.018,-86.876)">
			<title>Sheet.24</title>
			<desc>qVsim</desc>
			<v:textBlock v:margins="rect(2,2,2,2)" v:tabSpace="42.5197"/>
			<v:textRect cx="33.8958" cy="258.455" width="67.8" height="12"/>
			<rect x="0" y="252.455" width="67.7916" height="12" class="st6"/>
			<text x="18.82" y="262.05" class="st9" v:langID="2052"><v:paragraph v:horizAlign="1"/><v:tabList/>qVsim</text>		</g>
		<g id="shape25-75" v:mID="25" v:groupContext="shape" transform="translate(568.365,-37.2697)">
			<title>Sheet.25</title>
			<desc>qTV</desc>
			<v:textBlock v:margins="rect(2,2,2,2)" v:tabSpace="42.5197"/>
			<v:textRect cx="33.8958" cy="258.455" width="67.8" height="12"/>
			<rect x="0" y="252.455" width="67.7916" height="12" class="st6"/>
			<text x="24.42" y="262.05" class="st9" v:langID="2052"><v:paragraph v:horizAlign="1"/><v:tabList/>qTV</text>		</g>
		<g id="shape26-78" v:mID="26" v:groupContext="shape" transform="translate(663.829,-0.75)">
			<title>Sheet.26</title>
			<rect x="0" y="120.869" width="76.1102" height="143.586" class="st21"/>
		</g>
		<g id="shape27-80" v:mID="27" v:groupContext="shape" transform="translate(663.829,-118.57)">
			<title>Sheet.27</title>
			<desc>GDS generator</desc>
			<v:textBlock v:margins="rect(2,2,2,2)" v:tabSpace="42.5197"/>
			<v:textRect cx="38.0551" cy="258.455" width="76.12" height="12"/>
			<rect x="0" y="252.455" width="76.1102" height="12" class="st6"/>
			<text x="26.12" y="254.25" class="st7" v:langID="2052"><v:paragraph v:horizAlign="1"/><v:tabList/>GDS <tspan x="9.85"
						dy="1.2em" class="st10">generator</tspan></text>		</g>
		<g id="shape28-84" v:mID="28" v:groupContext="shape" transform="translate(672.829,-43.2697)">
			<title>Sheet.28</title>
			<rect x="0" y="236.108" width="58.1102" height="28.3465" class="st22"/>
		</g>
		<g id="shape29-86" v:mID="29" v:groupContext="shape" transform="translate(677.081,-50.4362)">
			<title>Sheet.29</title>
			<desc>qGDS</desc>
			<v:textBlock v:margins="rect(2,2,2,2)" v:tabSpace="42.5197"/>
			<v:textRect cx="24.8031" cy="257.448" width="49.61" height="14.0135"/>
			<rect x="0" y="250.441" width="49.6063" height="14.0135" class="st6"/>
			<text x="11.42" y="261.05" class="st9" v:langID="2052"><v:paragraph v:horizAlign="1"/><v:tabList/>qGDS</text>		</g>
		<g id="shape30-89" v:mID="30" v:groupContext="shape" v:layerMember="0" transform="translate(644.508,-64.5296)">
			<title>Dynamic connector.1040</title>
			<path d="M0 257.37 L12.28 257.37" class="st11"/>
		</g>
		<g id="shape31-94" v:mID="31" v:groupContext="shape" transform="translate(419.377,-57.4429)">
			<title>Sheet.31</title>
			<desc>qTiming Fix</desc>
			<v:textBlock v:margins="rect(2,2,2,2)" v:tabSpace="42.5197"/>
			<v:textRect cx="18.9516" cy="253.289" width="37.91" height="22.3318"/>
			<rect x="0" y="242.123" width="37.9033" height="22.3318" class="st18"/>
			<text x="5.89" y="250.89" class="st23" v:langID="2052"><v:paragraph v:horizAlign="1"/><v:tabList/>q<tspan class="st10"
						v:langID="1033">Timing<v:lf/></tspan><tspan x="14.46" dy="1.2em" class="st10">Fix</tspan></text>		</g>
		<g id="shape32-99" v:mID="32" v:groupContext="shape" v:layerMember="0" transform="translate(421.103,-62.0582)">
			<title>Dynamic connector.1042</title>
			<path d="M-1.73 257.37 L-5.41 257.37" class="st11"/>
		</g>
		<g id="shape33-104" v:mID="33" v:groupContext="shape" v:layerMember="0" transform="translate(406.929,-53.1999)">
			<title>Dynamic connector.1043</title>
			<path d="M1.73 257.37 L5.41 257.37" class="st11"/>
		</g>
		<g id="shape34-109" v:mID="34" v:groupContext="shape" v:layerMember="0" transform="translate(692.955,-64.5295)">
			<title>Dynamic connector.1045</title>
			<path d="M0 257.37 L0 243.19 L18.28 243.19 L18.28 250.33" class="st11"/>
		</g>
		<g id="shape35-114" v:mID="35" v:groupContext="shape" transform="translate(684.83,-87.561)">
			<title>Sheet.35</title>
			<desc>DRCs</desc>
			<v:textBlock v:margins="rect(2,2,2,2)" v:tabSpace="42.5197"/>
			<v:textRect cx="17.0534" cy="258.455" width="34.11" height="12"/>
			<rect x="0" y="252.455" width="34.1069" height="12" class="st6"/>
			<text x="7.68" y="261.15" class="st24" v:langID="2052"><v:paragraph v:horizAlign="1"/><v:tabList/>DRCs</text>		</g>
		<g id="shape36-117" v:mID="36" v:groupContext="shape" transform="translate(751.976,-37.5802)">
			<title>Document.1047</title>
			<v:userDefs>
				<v:ud v:nameU="msvShapeCategories" v:prompt="" v:val="VT4(Icon)"/>
				<v:ud v:nameU="visVersion" v:prompt="" v:val="VT0(15):26"/>
			</v:userDefs>
			<path d="M9.54 251.31 L9.54 249.43 L40.07 249.43 L40.07 251.31 L9.54 251.31 ZM9.54 243.8 L9.54 241.92 L40.07 241.92 L40.07
						 243.8 L9.54 243.8 ZM9.54 236.29 L9.54 234.41 L40.07 234.41 L40.07 236.29 L9.54 236.29 ZM9.54 228.77 L9.54
						 226.9 L40.07 226.9 L40.07 228.77 L9.54 228.77 ZM9.54 221.26 L9.54 219.39 L28.69 219.39 L28.69 221.26 L9.54
						 221.26 ZM45.79 260.7 L45.79 219.39 L34.34 219.39 L34.34 208.12 L3.82 208.12 L3.82 260.7 L45.79 260.7 ZM45.31
						 217.51 L36.25 208.59 L36.25 217.51 L45.31 217.51 ZM37.68 204.36 L49.61 216.1 L49.61 264.45 L0 264.45 L0
						 204.36 L37.68 204.36 Z" class="st25"/>
		</g>
		<g id="shape37-119" v:mID="37" v:groupContext="shape" v:layerMember="0" transform="translate(738.871,-60.5398)">
			<title>Dynamic connector.1048</title>
			<path d="M1.07 257.37 L6.07 257.37" class="st11"/>
		</g>
		<g id="shape38-124" v:mID="38" v:groupContext="shape" transform="translate(751.49,-81.5374)">
			<title>Sheet.38</title>
			<desc>.GDS</desc>
			<v:textBlock v:margins="rect(2,2,2,2)" v:tabSpace="42.5197"/>
			<v:textRect cx="18.9516" cy="258.455" width="37.91" height="12"/>
			<rect x="0" y="252.455" width="37.9033" height="12" class="st6"/>
			<text x="7.2" y="262.05" class="st9" v:langID="2052"><v:paragraph v:horizAlign="1"/><v:tabList/>.GDS</text>		</g>
		<g id="shape39-127" v:mID="39" v:groupContext="shape" transform="translate(8.64338,-13.1488)">
			<title>Sheet.39</title>
			<desc>Verilog</desc>
			<v:textBlock v:margins="rect(2,2,2,2)" v:tabSpace="42.5197"/>
			<v:textRect cx="33.8958" cy="242.308" width="67.8" height="44.2941"/>
			<rect x="0" y="220.161" width="67.7916" height="44.2941" class="st6"/>
			<text x="16.67" y="245.91" class="st9" v:langID="2052"><v:paragraph v:horizAlign="1"/><v:tabList/>Verilog</text>		</g>
		<g id="shape40-130" v:mID="40" v:groupContext="shape" transform="translate(25.0571,-41.8241)">
			<title>Document.1051</title>
			<v:userDefs>
				<v:ud v:nameU="msvShapeCategories" v:prompt="" v:val="VT4(Icon)"/>
				<v:ud v:nameU="visVersion" v:prompt="" v:val="VT0(15):26"/>
			</v:userDefs>
			<path d="M7.66 253.9 L7.66 252.39 L32.17 252.39 L32.17 253.9 L7.66 253.9 ZM7.66 247.87 L7.66 246.36 L32.17 246.36 L32.17
						 247.87 L7.66 247.87 ZM7.66 241.84 L7.66 240.33 L32.17 240.33 L32.17 241.84 L7.66 241.84 ZM7.66 235.81 L7.66
						 234.3 L32.17 234.3 L32.17 235.81 L7.66 235.81 ZM7.66 229.78 L7.66 228.27 L23.04 228.27 L23.04 229.78 L7.66
						 229.78 ZM36.76 261.44 L36.76 228.27 L27.57 228.27 L27.57 219.22 L3.06 219.22 L3.06 261.44 L36.76 261.44
						 ZM36.38 226.76 L29.1 219.6 L29.1 226.76 L36.38 226.76 ZM30.25 216.21 L39.83 225.63 L39.83 264.45 L0 264.45
						 L0 216.21 L30.25 216.21 Z" class="st25"/>
		</g>
		<g id="shape41-132" v:mID="41" v:groupContext="shape" transform="translate(505.955,-232.256)">
			<title>Sheet.41</title>
			<rect x="0" y="238.639" width="59.2441" height="25.8155" class="st26"/>
		</g>
		<g id="shape42-134" v:mID="42" v:groupContext="shape" transform="translate(506.238,-239.357)">
			<title>Sheet.42</title>
			<desc>qTC</desc>
			<v:textBlock v:margins="rect(2,2,2,2)" v:tabSpace="42.5197"/>
			<v:textRect cx="29.0551" cy="258.455" width="58.12" height="12"/>
			<rect x="0" y="252.455" width="58.1102" height="12" class="st6"/>
			<text x="15.14" y="263.85" class="st13" v:langID="2052"><v:paragraph v:horizAlign="1"/><v:tabList/>qTC</text>		</g>
		<g id="shape43-137" v:mID="43" v:groupContext="shape" transform="translate(301.506,-199.222)">
			<title>Sheet.43</title>
			<desc>SFQgen.lib</desc>
			<v:textBlock v:margins="rect(2,2,2,2)" v:tabSpace="42.5197"/>
			<v:textRect cx="33.7323" cy="253.825" width="67.47" height="21.2598"/>
			<rect x="0" y="243.195" width="67.4646" height="21.2598" class="st27"/>
			<text x="12.12" y="256.82" class="st15" v:langID="2052"><v:paragraph v:horizAlign="1"/><v:tabList/>SFQgen.lib</text>		</g>
		<g id="shape44-142" v:mID="44" v:groupContext="shape" transform="translate(498.868,-198.15)">
			<title>Sheet.44</title>
			<desc>Timing characterization</desc>
			<v:textBlock v:margins="rect(2,2,2,2)" v:tabSpace="42.5197"/>
			<v:textRect cx="35.4331" cy="253.289" width="70.87" height="22.3318"/>
			<rect x="0" y="242.123" width="70.8661" height="22.3318" class="st27"/>
			<text x="21.73" y="250.29" class="st15" v:langID="2052"><v:paragraph v:horizAlign="1"/><v:tabList/>Timing <tspan
						x="2.53" dy="1.2em" class="st10">characterization</tspan></text>		</g>
		<g id="shape45-147" v:mID="45" v:groupContext="shape" v:layerMember="0" transform="translate(528.49,-233.456)">
			<title>Dynamic connector.1059</title>
			<path d="M7.09 265.65 L7.09 270.39" class="st11"/>
		</g>
		<g id="shape46-152" v:mID="46" v:groupContext="shape" v:layerMember="0" transform="translate(440.12,-237.571)">
			<title>Dynamic connector.1060</title>
			<path d="M0 257.37 L59.01 257.37" class="st11"/>
		</g>
		<g id="shape47-157" v:mID="47" v:groupContext="shape" transform="translate(414.892,-199.222)">
			<title>Sheet.47</title>
			<desc>SFQLib.v</desc>
			<v:textBlock v:margins="rect(2,2,2,2)" v:tabSpace="42.5197"/>
			<v:textRect cx="33.7323" cy="253.825" width="67.47" height="21.2598"/>
			<rect x="0" y="243.195" width="67.4646" height="21.2598" class="st27"/>
			<text x="16.38" y="256.82" class="st15" v:langID="2052"><v:paragraph v:horizAlign="1"/><v:tabList/>SFQLib.v</text>		</g>
		<g id="shape48-161" v:mID="48" v:groupContext="shape" v:layerMember="0" transform="translate(535.718,-198.15)">
			<title>Dynamic connector.1063</title>
			<path d="M0 264.45 L0 284.96 L37.91 284.96 L37.91 311.23" class="st11"/>
		</g>
		<g id="shape49-166" v:mID="49" v:groupContext="shape" v:layerMember="0" transform="translate(345.159,-232.57)">
			<title>Dynamic connector.1064</title>
			<path d="M7.09 266.54 L7.09 269.5" class="st11"/>
		</g>
		<g id="shape50-171" v:mID="50" v:groupContext="shape" v:layerMember="0" transform="translate(420.278,-232.57)">
			<title>Dynamic connector.1065</title>
			<path d="M7.09 266.54 L7.09 269.5" class="st11"/>
		</g>
		<g id="shape51-176" v:mID="51" v:groupContext="shape" v:layerMember="0" transform="translate(301.506,-209.852)">
			<title>Dynamic connector.1066</title>
			<path d="M0 264.45 L-140.05 264.45 L-140.05 349.46" class="st11"/>
		</g>
		<g id="shape52-181" v:mID="52" v:groupContext="shape" transform="translate(502.178,-78.7027)">
			<title>Sheet.52</title>
			<path d="M0 264.45 L49.61 264.45 L49.61 198.69 L0 198.69 L0 264.45 Z" class="st3"/>
		</g>
		<g id="shape53-183" v:mID="53" v:groupContext="shape" transform="translate(504.871,-114.136)">
			<title>Sheet.53</title>
			<desc>Large circuit</desc>
			<v:textBlock v:margins="rect(2,2,2,2)" v:tabSpace="42.5197"/>
			<v:textRect cx="22.1102" cy="253.825" width="44.23" height="21.2598"/>
			<rect x="0" y="243.195" width="44.2205" height="21.2598" class="st28"/>
			<text x="11.03" y="250.82" class="st15" v:langID="1033"><v:paragraph v:horizAlign="1"/><v:tabList/>Large <tspan
						x="9.54" dy="1.2em" class="st10">circuit</tspan></text>		</g>
		<g id="shape54-187" v:mID="54" v:groupContext="shape" transform="translate(504.871,-83.5216)">
			<title>Sheet.54</title>
			<desc>Dual Phase Clock Sequential</desc>
			<v:textBlock v:margins="rect(2,2,2,2)" v:tabSpace="42.5197"/>
			<v:textRect cx="22.1102" cy="250.281" width="44.23" height="28.3465"/>
			<rect x="0" y="236.108" width="44.2205" height="28.3465" class="st28"/>
			<text x="4.17" y="243.08" class="st23" v:langID="1033"><v:paragraph v:horizAlign="1"/><v:tabList/>Dual Phase <tspan
						x="13.44" dy="1.2em" class="st10" v:langID="2052">Clock </tspan><tspan x="4.9" dy="1.2em" class="st10">Sequential</tspan></text>		</g>
		<g id="shape55-192" v:mID="55" v:groupContext="shape" transform="translate(504.446,-32.6397)">
			<title>Sheet.55</title>
			<desc>Small circuit</desc>
			<v:textBlock v:margins="rect(2,2,2,2)" v:tabSpace="42.5197"/>
			<v:textRect cx="22.1102" cy="253.825" width="44.23" height="21.2598"/>
			<rect x="0" y="243.195" width="44.2205" height="21.2598" class="st28"/>
			<text x="11.13" y="250.82" class="st15" v:langID="1033"><v:paragraph v:horizAlign="1"/><v:tabList/>Small <tspan
						x="9.54" dy="1.2em" class="st10">circuit</tspan></text>		</g>
		<g id="shape56-196" v:mID="56" v:groupContext="shape" v:layerMember="0" transform="translate(551.785,-85.7894)">
			<title>Dynamic connector.1080</title>
			<path d="M0 257.37 L9.19 257.37" class="st11"/>
		</g>
		<g id="shape57-201" v:mID="57" v:groupContext="shape" v:layerMember="0" transform="translate(550.975,-36.1831)">
			<title>Dynamic connector.1081</title>
			<path d="M0 257.37 L10.56 257.37" class="st11"/>
		</g>
		<g id="shape58-206" v:mID="58" v:groupContext="shape" transform="translate(272.096,-246.831)">
			<title>Sheet.58</title>
			<desc>Cell Design</desc>
			<v:textBlock v:margins="rect(2,2,2,2)" v:tabSpace="42.5197"/>
			<v:textRect cx="33.8958" cy="258.455" width="67.8" height="12"/>
			<rect x="0" y="252.455" width="67.7916" height="12" class="st6"/>
			<text x="2.78" y="262.65" class="st7" v:langID="2052"><v:paragraph v:horizAlign="1"/><v:tabList/>Cell Design</text>		</g>
		<g id="shape59-209" v:mID="59" v:groupContext="shape" transform="translate(182.127,-43.2697)">
			<title>Sheet.59</title>
			<rect x="0" y="210.029" width="68.072" height="54.4253" class="st14"/>
		</g>
		<g id="shape60-211" v:mID="60" v:groupContext="shape" transform="translate(187.027,-67.5893)">
			<title>Sheet.60</title>
			<desc>Full Path Balance</desc>
			<v:textBlock v:margins="rect(2,2,2,2)" v:tabSpace="42.5197"/>
			<v:textRect cx="13.1609" cy="258.127" width="26.33" height="12.6547"/>
			<path d="M0 264.45 L26.32 264.45 L26.32 251.8 L0 251.8 L0 264.45 Z" class="st29"/>
			<text x="2.58" y="256.33" class="st30" v:langID="2052"><v:paragraph v:horizAlign="1"/><v:tabList/>Full Path <tspan
						x="3.63" dy="1.2em" class="st10">Balance</tspan></text>		</g>
		<g id="shape61-215" v:mID="61" v:groupContext="shape" transform="translate(218.972,-66.4601)">
			<title>Sheet.61</title>
			<desc>Dual Clock</desc>
			<v:textBlock v:margins="rect(2,2,2,2)" v:tabSpace="42.5197"/>
			<v:textRect cx="14.3352" cy="257.563" width="28.68" height="13.7839"/>
			<path d="M0 264.45 L28.67 264.45 L28.67 250.67 L0 250.67 L0 264.45 Z" class="st29"/>
			<text x="8.79" y="255.76" class="st30" v:langID="2052"><v:paragraph v:horizAlign="1"/><v:tabList/>Dual <tspan x="7.83"
						dy="1.2em" class="st10">Clock</tspan></text>		</g>
		<g id="shape62-219" v:mID="62" v:groupContext="shape" transform="translate(187.027,-48.7339)">
			<title>Sheet.62</title>
			<desc>Dual Phase</desc>
			<v:textBlock v:margins="rect(2,2,2,2)" v:tabSpace="42.5197"/>
			<v:textRect cx="13.8691" cy="258.455" width="27.74" height="12"/>
			<path d="M0 264.45 L27.74 264.45 L27.74 252.45 L0 252.45 L0 264.45 Z" class="st29"/>
			<text x="8.32" y="256.66" class="st30" v:langID="2052"><v:paragraph v:horizAlign="1"/><v:tabList/>Dual <tspan x="6.64"
						dy="1.2em" class="st10">Phase</tspan></text>		</g>
		<g id="shape63-223" v:mID="63" v:groupContext="shape" transform="translate(218.972,-48.7339)">
			<title>Sheet.63</title>
			<desc>Counter</desc>
			<v:textBlock v:margins="rect(2,2,2,2)" v:tabSpace="42.5197"/>
			<v:textRect cx="14.4795" cy="258.191" width="28.96" height="12.5281"/>
			<path d="M0 264.45 L28.96 264.45 L28.96 251.93 L0 251.93 L0 264.45 Z" class="st29"/>
			<text x="4.6" y="259.99" class="st30" v:langID="2052"><v:paragraph v:horizAlign="1"/><v:tabList/>Counter</text>		</g>
		<g id="shape64-226" v:mID="64" v:groupContext="shape" transform="translate(189.963,-80.876)">
			<title>Sheet.64</title>
			<desc>qABC</desc>
			<v:textBlock v:margins="rect(2,2,2,2)" v:tabSpace="42.5197"/>
			<v:textRect cx="24.8031" cy="258.455" width="49.61" height="12"/>
			<rect x="0" y="252.455" width="49.6063" height="12" class="st6"/>
			<text x="13.9" y="261.45" class="st15" v:langID="2052"><v:paragraph v:horizAlign="1"/><v:tabList/>qABC</text>		</g>
		<g id="shape65-229" v:mID="65" v:groupContext="shape" v:layerMember="0" transform="translate(159.227,-66.3653)">
			<title>Dynamic connector.1100</title>
			<path d="M0 257.37 L15.86 257.37" class="st11"/>
		</g>
		<g id="shape66-234" v:mID="66" v:groupContext="shape" v:layerMember="0" transform="translate(352.246,-67.5938)">
			<title>Dynamic connector.1102</title>
			<desc>.def/ .config</desc>
			<v:textBlock v:margins="rect(4,4,4,4)" v:tabSpace="42.5197"/>
			<v:textRect cx="12.4724" cy="246.08" width="40" height="27.2035"/>
			<path d="M0 257.37 L18.47 257.37" class="st11"/>
			<rect v:rectContext="textBkgnd" x="1.28869" y="236.48" width="22.3673" height="19.1997" class="st31"/>
			<text x="4.26" y="243.68" class="st17" v:langID="2052"><v:paragraph v:horizAlign="1"/><v:tabList/>.def/<v:lf/><tspan
						x="1.29" dy="1.2em" class="st10">.config</tspan></text>		</g>
		<g id="shape67-242" v:mID="67" v:groupContext="shape" transform="translate(389.751,-116.404)">
			<title>Sheet.67</title>
			<desc>Routing</desc>
			<v:textBlock v:margins="rect(2,2,2,2)" v:tabSpace="42.5197"/>
			<v:textRect cx="29.0551" cy="258.455" width="58.12" height="12"/>
			<rect x="0" y="252.455" width="58.1102" height="12" class="st6"/>
			<text x="6.96" y="262.65" class="st7" v:langID="2052"><v:paragraph v:horizAlign="1"/><v:tabList/>Routing</text>		</g>
		<g id="shape68-245" v:mID="68" v:groupContext="shape" v:layerMember="0" transform="translate(459.854,-74.397)">
			<title>Dynamic connector.1104</title>
			<path d="M0 264.45 L32.8 264.45 L32.8 226.12 L35.28 226.12" class="st11"/>
		</g>
		<g id="shape69-250" v:mID="69" v:groupContext="shape" v:layerMember="0" transform="translate(459.854,-74.397)">
			<title>Dynamic connector.1105</title>
			<path d="M0 264.45 L32.71 264.45 L32.71 293.31 L34.47 293.31" class="st11"/>
		</g>
		<g id="shape70-255" v:mID="70" v:groupContext="shape" transform="translate(463.716,-72.7027)">
			<title>Sheet.70</title>
			<desc>.def</desc>
			<v:textBlock v:margins="rect(2,2,2,2)" v:tabSpace="42.5197"/>
			<v:textRect cx="11.4459" cy="258.455" width="22.9" height="12"/>
			<rect x="0" y="252.455" width="22.8918" height="12" class="st6"/>
			<text x="4.95" y="260.85" class="st17" v:langID="2052"><v:paragraph v:horizAlign="1"/><v:tabList/>.def</text>		</g>
		<g id="shape71-258" v:mID="71" v:groupContext="shape" transform="translate(641.152,-71.6161)">
			<title>Sheet.71</title>
			<desc>.def</desc>
			<v:textBlock v:margins="rect(2,2,2,2)" v:tabSpace="42.5197"/>
			<v:textRect cx="11.4459" cy="258.455" width="22.9" height="12"/>
			<rect x="0" y="252.455" width="22.8918" height="12" class="st6"/>
			<text x="4.14" y="261.15" class="st32" v:langID="2052"><v:paragraph v:horizAlign="1"/><v:tabList/>.def</text>		</g>
		<g id="shape72-261" v:mID="72" v:groupContext="shape" v:layerMember="0" transform="translate(535.718,-177.696)">
			<title>Dynamic connector.1108</title>
			<path d="M0 264.45 L-70.66 264.45 A2.3622 2.3622 -180 0 0 -75.38 264.45 L-140.73 264.45 A2.3622 2.3622 -180 1 0 -145.46
						 264.45 L-217.96 264.45 A2.3622 2.3622 -180 0 0 -222.68 264.45 L-318.16 264.45 L-318.16 317.3" class="st11"/>
		</g>
		<g id="shape73-266" v:mID="73" v:groupContext="shape" v:layerMember="0" transform="translate(535.718,-198.15)">
			<title>Dynamic connector.1109</title>
			<path d="M0 264.45 L0 284.91 L-70.66 284.91 A2.3622 2.3622 -180 1 0 -75.38 284.91 L-116.91 284.91 L-116.91 320.17"
					class="st11"/>
		</g>
		<g id="shape74-271" v:mID="74" v:groupContext="shape" v:layerMember="0" transform="translate(462.697,-199.222)">
			<title>Dynamic connector.1110</title>
			<path d="M0 264.45 L0 292.85 L108.57 292.85 A2.3622 2.3622 0 0 1 113.29 292.85 L135.8 292.85 L135.8 312.3" class="st11"/>
		</g>
		<g id="shape75-276" v:mID="75" v:groupContext="shape" v:layerMember="0" transform="translate(264.372,-71.6161)">
			<title>Dynamic connector.1111</title>
			<path d="M0 264.45 L0 327.1 L290.6 327.1" class="st11"/>
		</g>
		<g id="shape76-281" v:mID="76" v:groupContext="shape" transform="translate(462.797,-7.8366)">
			<title>Sheet.76</title>
			<desc>.level</desc>
			<v:textBlock v:margins="rect(2,2,2,2)" v:tabSpace="42.5197"/>
			<v:textRect cx="13.8691" cy="258.455" width="27.74" height="12"/>
			<rect x="0" y="252.455" width="27.7383" height="12" class="st6"/>
			<text x="3.8" y="261.15" class="st32" v:langID="2052"><v:paragraph v:horizAlign="1"/><v:tabList/>.level</text>		</g>
		<g id="shape77-284" v:mID="77" v:groupContext="shape" transform="translate(458.545,-61.3643)">
			<title>Sheet.77</title>
			<desc>.netdelay</desc>
			<v:textBlock v:margins="rect(2,2,2,2)" v:tabSpace="42.5197"/>
			<v:textRect cx="17.7165" cy="258.455" width="35.44" height="12"/>
			<rect x="0" y="252.455" width="35.4331" height="12" class="st6"/>
			<text x="2.09" y="260.85" class="st17" v:langID="2052"><v:paragraph v:horizAlign="1"/><v:tabList/>.netdelay</text>		</g>
		<g id="shape78-287" v:mID="78" v:groupContext="shape" transform="translate(459.455,-53.9469)">
			<title>Sheet.78</title>
			<desc>.alledges</desc>
			<v:textBlock v:margins="rect(2,2,2,2)" v:tabSpace="42.5197"/>
			<v:textRect cx="17.0534" cy="258.455" width="34.11" height="12"/>
			<rect x="0" y="252.455" width="34.1069" height="12" class="st6"/>
			<text x="2.38" y="260.85" class="st17" v:langID="2052"><v:paragraph v:horizAlign="1"/><v:tabList/>.alledges</text>		</g>
		<g id="shape79-290" v:mID="79" v:groupContext="shape" transform="translate(372.979,-199.222)">
			<title>Sheet.79</title>
			<desc>.LEF</desc>
			<v:textBlock v:margins="rect(2,2,2,2)" v:tabSpace="42.5197"/>
			<v:textRect cx="18.9516" cy="253.825" width="37.91" height="21.2598"/>
			<rect x="0" y="243.195" width="37.9033" height="21.2598" class="st27"/>
			<text x="10.85" y="256.82" class="st15" v:langID="2052"><v:paragraph v:horizAlign="1"/><v:tabList/>.LEF</text>		</g>
		<g id="shape80-294" v:mID="80" v:groupContext="shape" v:layerMember="0" transform="translate(384.845,-232.57)">
			<title>Dynamic connector.1117</title>
			<path d="M7.09 266.54 L7.09 269.5" class="st11"/>
		</g>
		<g id="shape81-299" v:mID="81" v:groupContext="shape" v:layerMember="0" transform="translate(392.782,-199.222)">
			<title>Dynamic connector.1118</title>
			<path d="M0 264.45 L0 278.63 L-77.39 278.63 L-77.39 320.96" class="st11"/>
		</g>
		<g id="shape82-304" v:mID="82" v:groupContext="shape" v:layerMember="0" transform="translate(399.637,-199.222)">
			<title>Dynamic connector.1119</title>
			<path d="M-6.86 264.45 L-7.27 321.24" class="st11"/>
		</g>
		<g id="shape83-309" v:mID="83" v:groupContext="shape" v:layerMember="0" transform="translate(392.782,-199.222)">
			<title>Dynamic connector.1120</title>
			<path d="M0 264.45 L0 278.63 L67.55 278.63 A2.3622 2.3622 0 0 1 72.28 278.63 L140.57 278.63 A2.3622 2.3622 0 1 1 145.3
						 278.63 L225.92 278.63 L225.92 312.3" class="st11"/>
		</g>
		<g id="shape84-314" v:mID="84" v:groupContext="shape" v:layerMember="0" transform="translate(392.782,-199.222)">
			<title>Dynamic connector.1121</title>
			<path d="M0 264.45 L0 278.63 L67.55 278.63 A2.3622 2.3622 0 0 1 72.28 278.63 L140.57 278.63 A2.3622 2.3622 0 1 1 145.3
						 278.63 L309.1 278.63 L309.1 312.3" class="st11"/>
		</g>
	</g>
</svg>
