<?xml version="1.0" encoding="UTF-8" standalone="no"?>
<!DOCTYPE svg PUBLIC "-//W3C//DTD SVG 1.1//EN" "http://www.w3.org/Graphics/SVG/1.1/DTD/svg11.dtd">
<!-- Generated by Microsoft Visio, SVG Export qPALACE_flow_AQFP.svg Page-1 -->
<svg xmlns="http://www.w3.org/2000/svg" xmlns:xlink="http://www.w3.org/1999/xlink" xmlns:ev="http://www.w3.org/2001/xml-events"
		xmlns:v="http://schemas.microsoft.com/visio/2003/SVGExtensions/" width="11.8431in" height="3.6834in"
		viewBox="0 0 852.703 265.205" xml:space="preserve" color-interpolation-filters="sRGB" class="st31">
	<v:documentProperties v:langID="1033" v:viewMarkup="false"/>

	<style type="text/css">
	<![CDATA[
		.st1 {fill:#b5c6e7;stroke:#c8c8c8;stroke-width:0.75}
		.st2 {fill:#cbffff;stroke:#c8c8c8;stroke-width:1.5}
		.st3 {fill:#f2f2f2;stroke:#c8c8c8;stroke-dasharray:11.25,6.75;stroke-width:0.75}
		.st4 {fill:#fee599;stroke:#c8c8c8;stroke-width:0.75}
		.st5 {fill:#ffffff;stroke:#c8c8c8;stroke-width:1.5}
		.st6 {fill:none;stroke:none;stroke-width:0.25}
		.st7 {fill:#000000;font-family:Calibri;font-size:1.16666em}
		.st8 {fill:none;stroke:#c8c8c8;stroke-width:0.75}
		.st9 {fill:#000000;font-family:Calibri;font-size:1.00001em}
		.st10 {font-size:1em}
		.st11 {marker-end:url(#mrkr4-27);stroke:#000000;stroke-linecap:round;stroke-linejoin:round;stroke-width:1}
		.st12 {fill:#000000;fill-opacity:1;stroke:#000000;stroke-opacity:1;stroke-width:0.28409090909091}
		.st13 {fill:#000000;font-family:Calibri;font-size:1.5em}
		.st14 {fill:#ffffff;stroke:#000000;stroke-width:0.75}
		.st15 {fill:#000000;font-family:Calibri;font-size:0.833336em}
		.st16 {fill:#ffffff;stroke:none;stroke-linecap:butt;stroke-width:7.2}
		.st17 {fill:#000000;font-family:Calibri;font-size:0.666664em;font-weight:bold}
		.st18 {fill:#ffffff;stroke:#000000;stroke-width:1}
		.st19 {fill:#c5e0b3;stroke:#c8c8c8;stroke-width:0.75}
		.st20 {fill:#f2f2f2;stroke:#000000;stroke-width:1.5}
		.st21 {fill:#ededed;stroke:#c8c8c8;stroke-width:0.75}
		.st22 {fill:#ffffff;stroke:#000000;stroke-width:1.5}
		.st23 {fill:#000000;font-family:Calibri;font-size:0.75em}
		.st24 {fill:#000000;stroke:none;stroke-linecap:butt;stroke-width:0.75}
		.st25 {fill:#ffffff;stroke:#000000;stroke-width:2.25}
		.st26 {fill:url(#grad0-113);stroke:#3d64ac;stroke-width:0.75}
		.st27 {fill:#ffffff;stroke:#e9ebf5;stroke-width:1}
		.st28 {fill:#000000;font-family:Calibri;font-size:0.75em;font-weight:bold}
		.st29 {fill:#f7cbac;stroke:#c8c8c8;stroke-width:0.75}
		.st30 {marker-end:url(#mrkr4-264);stroke:#000000;stroke-linecap:round;stroke-linejoin:round;stroke-width:1}
		.st31 {fill:none;fill-rule:evenodd;font-size:12px;overflow:visible;stroke-linecap:square;stroke-miterlimit:3}
	]]>
	</style>

	<defs id="Patterns_And_Gradients">
		<linearGradient id="grad0-113" x1="0" y1="0" x2="1" y2="0" gradientTransform="rotate(60 0.5 0.5)">
			<stop offset="0" stop-color="#e8ebf4" stop-opacity="1"/>
			<stop offset="0.24" stop-color="#f4f5f9" stop-opacity="1"/>
			<stop offset="0.54" stop-color="#feffff" stop-opacity="1"/>
		</linearGradient>
	</defs>
	<defs id="Markers">
		<g id="lend4">
			<path d="M 2 1 L 0 0 L 2 -1 L 2 1 " style="stroke:none"/>
		</g>
		<marker id="mrkr4-27" class="st12" v:arrowType="4" v:arrowSize="2" v:setback="7.04" refX="-7.04" orient="auto"
				markerUnits="strokeWidth" overflow="visible">
			<use xlink:href="#lend4" transform="scale(-3.52,-3.52) "/>
		</marker>
		<marker id="mrkr4-264" class="st12" v:arrowType="4" v:arrowSize="2" v:setback="0" refX="-0" orient="auto"
				markerUnits="strokeWidth" overflow="visible">
			<use xlink:href="#lend4" transform="scale(-3.52,-3.52) "/>
		</marker>
	</defs>
	<g v:mID="0" v:index="1" v:groupContext="foregroundPage">
		<title>Page-1</title>
		<v:pageProperties v:drawingScale="0.0393701" v:pageScale="0.0393701" v:drawingUnits="24" v:shadowOffsetX="4.25197"
				v:shadowOffsetY="-4.25197"/>
		<v:layer v:name="Connector" v:index="0"/>
		<g id="shape85-1" v:mID="85" v:groupContext="shape" transform="translate(348.987,-15.1942)">
			<title>Sheet.85</title>
			<rect x="0" y="144.732" width="82.0962" height="120.472" class="st1"/>
		</g>
		<g id="shape86-3" v:mID="86" v:groupContext="shape" transform="translate(272.096,-192.839)">
			<title>Sheet.86</title>
			<rect x="0" y="194.339" width="353.055" height="70.8661" class="st2"/>
		</g>
		<g id="shape87-5" v:mID="87" v:groupContext="shape" transform="translate(551.739,-9.77957)">
			<title>Sheet.87</title>
			<path d="M0 265.2 L49.61 265.2 L49.61 203.98 L0 203.98 L0 265.2 Z" class="st3"/>
		</g>
		<g id="shape88-7" v:mID="88" v:groupContext="shape" transform="translate(255.998,-15.9567)">
			<title>Sheet.88</title>
			<rect x="0" y="144.732" width="73.7008" height="120.472" class="st1"/>
		</g>
		<g id="shape89-9" v:mID="89" v:groupContext="shape" transform="translate(105.348,-29.8464)">
			<title>Sheet.89</title>
			<rect x="0" y="176.494" width="125.817" height="88.7106" class="st4"/>
		</g>
		<g id="shape90-11" v:mID="90" v:groupContext="shape" transform="translate(340.12,-231.234)">
			<title>Sheet.90</title>
			<rect x="0" y="236.858" width="100" height="28.3465" class="st5"/>
		</g>
		<g id="shape91-13" v:mID="91" v:groupContext="shape" transform="translate(339.161,-240.008)">
			<title>Sheet.91</title>
			<desc>Cell Library</desc>
			<v:textBlock v:margins="rect(2,2,2,2)" v:tabSpace="42.5197"/>
			<v:textRect cx="50" cy="259.205" width="100" height="12"/>
			<rect x="0" y="253.205" width="100" height="12" class="st6"/>
			<text x="18.36" y="263.4" class="st7" v:langID="2052"><v:paragraph v:horizAlign="1"/><v:tabList/>Cell Library</text>		</g>
		<g id="shape92-16" v:mID="92" v:groupContext="shape" transform="translate(0.75,-29.8466)">
			<title>Sheet.92</title>
			<rect x="0" y="176.494" width="88.4409" height="88.7106" class="st8"/>
		</g>
		<g id="shape93-18" v:mID="93" v:groupContext="shape" transform="translate(0.75,-90.2107)">
			<title>Sheet.93</title>
			<desc>High-level description</desc>
			<v:textBlock v:margins="rect(2,2,2,2)" v:tabSpace="42.5197"/>
			<v:textRect cx="44.2205" cy="251.031" width="88.45" height="28.3465"/>
			<rect x="0" y="236.858" width="88.4409" height="28.3465" class="st6"/>
			<text x="19.86" y="247.43" class="st9" v:langID="2052"><v:paragraph v:horizAlign="1"/><v:tabList/>High-level <tspan
						x="16.87" dy="1.2em" class="st10">description</tspan></text>		</g>
		<g id="shape94-22" v:mID="94" v:groupContext="shape" v:layerMember="0" transform="translate(89.1909,-67.1152)">
			<title>Dynamic connector.1005</title>
			<path d="M0 258.12 L9.12 258.12" class="st11"/>
		</g>
		<g id="shape95-28" v:mID="95" v:groupContext="shape" transform="translate(105.348,-102.886)">
			<title>Sheet.95</title>
			<desc>Synthesis</desc>
			<v:textBlock v:margins="rect(2,2,2,2)" v:tabSpace="42.5197"/>
			<v:textRect cx="50" cy="259.205" width="100" height="12"/>
			<rect x="0" y="253.205" width="100" height="12" class="st6"/>
			<text x="15.74" y="264.6" class="st13" v:langID="2052"><v:paragraph v:horizAlign="1"/><v:tabList/>Synthesis</text>		</g>
		<g id="shape96-31" v:mID="96" v:groupContext="shape" transform="translate(115.007,-63.5719)">
			<title>Sheet.96</title>
			<desc>qYosys</desc>
			<v:textBlock v:margins="rect(2,2,2,2)" v:tabSpace="42.5197"/>
			<v:textRect cx="22.1102" cy="254.575" width="44.23" height="21.2598"/>
			<rect x="0" y="243.945" width="44.2205" height="21.2598" class="st14"/>
			<text x="8.24" y="257.57" class="st15" v:langID="2052"><v:paragraph v:horizAlign="1"/><v:tabList/>qYosys</text>		</g>
		<g id="shape97-34" v:mID="97" v:groupContext="shape" v:layerMember="0" transform="translate(231.165,-67.1151)">
			<title>Dynamic connector.1017</title>
			<desc>.v</desc>
			<v:textBlock v:margins="rect(4,4,4,4)" v:tabSpace="42.5197"/>
			<v:textRect cx="7.42835" cy="252.39" width="40" height="17.6036"/>
			<path d="M0 258.12 L17.79 258.12" class="st11"/>
			<rect v:rectContext="textBkgnd" x="4.46732" y="247.59" width="5.92191" height="9.59985" class="st16"/>
			<text x="4.47" y="254.79" class="st17" v:langID="2052"><v:paragraph v:horizAlign="1"/><v:tabList/>.v</text>		</g>
		<g id="shape98-41" v:mID="98" v:groupContext="shape" transform="translate(255.998,-117.154)">
			<title>Sheet.98</title>
			<desc>Placement</desc>
			<v:textBlock v:margins="rect(2,2,2,2)" v:tabSpace="42.5197"/>
			<v:textRect cx="35.4331" cy="259.205" width="70.87" height="12"/>
			<rect x="0" y="253.205" width="70.8661" height="12" class="st6"/>
			<text x="5.32" y="263.4" class="st7" v:langID="2052"><v:paragraph v:horizAlign="1"/><v:tabList/>Placement  </text>		</g>
		<g id="shape101-44" v:mID="101" v:groupContext="shape" transform="translate(265.828,-59.2649)">
			<title>Sheet.101</title>
			<desc>qAQFPPlace</desc>
			<v:textBlock v:margins="rect(2,2,2,2)" v:tabSpace="42.5197"/>
			<v:textRect cx="27.0202" cy="254.575" width="54.05" height="21.2598"/>
			<rect x="0" y="243.945" width="54.0405" height="21.2598" class="st18"/>
			<text x="2.53" y="257.57" class="st15" v:langID="2052"><v:paragraph v:horizAlign="1"/><v:tabList/>qAQFPPlace</text>		</g>
		<g id="shape103-47" v:mID="103" v:groupContext="shape" transform="translate(354.602,-58.7859)">
			<title>Sheet.103</title>
			<desc>qAQFPRouter</desc>
			<v:textBlock v:margins="rect(2,2,2,2)" v:tabSpace="42.5197"/>
			<v:textRect cx="35.4331" cy="254.575" width="70.87" height="21.2598"/>
			<rect x="0" y="243.945" width="70.8661" height="21.2598" class="st18"/>
			<text x="7.78" y="257.57" class="st15" v:langID="2052"><v:paragraph v:horizAlign="1"/><v:tabList/>qAQFPRouter</text>		</g>
		<g id="shape104-50" v:mID="104" v:groupContext="shape" transform="translate(612.38,-0.75)">
			<title>Sheet.104</title>
			<rect x="0" y="121.619" width="82.0962" height="143.586" class="st19"/>
		</g>
		<g id="shape105-52" v:mID="105" v:groupContext="shape" transform="translate(590.626,-123.868)">
			<title>Sheet.105</title>
			<desc>Analysis &#38; validation</desc>
			<v:textBlock v:margins="rect(2,2,2,2)" v:tabSpace="42.5197"/>
			<v:textRect cx="50" cy="259.205" width="100" height="12"/>
			<rect x="0" y="253.205" width="100" height="12" class="st6"/>
			<text x="24.89" y="255.6" class="st9" v:langID="2052"><v:paragraph v:horizAlign="1"/><v:tabList/>Analysis &#38; <tspan
						x="25.93" dy="1.2em" class="st10">validation</tspan></text>		</g>
		<g id="shape106-56" v:mID="106" v:groupContext="shape" transform="translate(618.389,-78.7028)">
			<title>Sheet.106</title>
			<rect x="0" y="236.858" width="67.7916" height="28.3465" class="st20"/>
		</g>
		<g id="shape107-58" v:mID="107" v:groupContext="shape" transform="translate(618.948,-29.0964)">
			<title>Sheet.107</title>
			<rect x="0" y="236.858" width="67.7916" height="28.3465" class="st20"/>
		</g>
		<g id="shape108-60" v:mID="108" v:groupContext="shape" transform="translate(618.389,-86.876)">
			<title>Sheet.108</title>
			<desc>qVsim</desc>
			<v:textBlock v:margins="rect(2,2,2,2)" v:tabSpace="42.5197"/>
			<v:textRect cx="33.8958" cy="259.205" width="67.8" height="12"/>
			<rect x="0" y="253.205" width="67.7916" height="12" class="st6"/>
			<text x="18.82" y="262.8" class="st9" v:langID="2052"><v:paragraph v:horizAlign="1"/><v:tabList/>qVsim</text>		</g>
		<g id="shape109-63" v:mID="109" v:groupContext="shape" transform="translate(618.735,-37.2697)">
			<title>Sheet.109</title>
			<desc>qTV</desc>
			<v:textBlock v:margins="rect(2,2,2,2)" v:tabSpace="42.5197"/>
			<v:textRect cx="33.8958" cy="259.205" width="67.8" height="12"/>
			<rect x="0" y="253.205" width="67.7916" height="12" class="st6"/>
			<text x="24.42" y="262.8" class="st9" v:langID="2052"><v:paragraph v:horizAlign="1"/><v:tabList/>qTV</text>		</g>
		<g id="shape110-66" v:mID="110" v:groupContext="shape" transform="translate(714.199,-0.75)">
			<title>Sheet.110</title>
			<rect x="0" y="121.619" width="76.1102" height="143.586" class="st21"/>
		</g>
		<g id="shape111-68" v:mID="111" v:groupContext="shape" transform="translate(714.199,-118.57)">
			<title>Sheet.111</title>
			<desc>GDS generator</desc>
			<v:textBlock v:margins="rect(2,2,2,2)" v:tabSpace="42.5197"/>
			<v:textRect cx="38.0551" cy="259.205" width="76.12" height="12"/>
			<rect x="0" y="253.205" width="76.1102" height="12" class="st6"/>
			<text x="26.12" y="255" class="st7" v:langID="2052"><v:paragraph v:horizAlign="1"/><v:tabList/>GDS <tspan x="9.85"
						dy="1.2em" class="st10">generator</tspan></text>		</g>
		<g id="shape112-72" v:mID="112" v:groupContext="shape" transform="translate(723.199,-43.2697)">
			<title>Sheet.112</title>
			<rect x="0" y="236.858" width="58.1102" height="28.3465" class="st22"/>
		</g>
		<g id="shape113-74" v:mID="113" v:groupContext="shape" transform="translate(727.451,-50.4362)">
			<title>Sheet.113</title>
			<desc>qGDS</desc>
			<v:textBlock v:margins="rect(2,2,2,2)" v:tabSpace="42.5197"/>
			<v:textRect cx="24.8031" cy="258.198" width="49.61" height="14.0135"/>
			<rect x="0" y="251.191" width="49.6063" height="14.0135" class="st6"/>
			<text x="11.42" y="261.8" class="st9" v:langID="2052"><v:paragraph v:horizAlign="1"/><v:tabList/>qGDS</text>		</g>
		<g id="shape114-77" v:mID="114" v:groupContext="shape" v:layerMember="0" transform="translate(694.878,-64.5296)">
			<title>Dynamic connector.1040</title>
			<path d="M0 258.12 L12.28 258.12" class="st11"/>
		</g>
		<g id="shape118-82" v:mID="118" v:groupContext="shape" v:layerMember="0" transform="translate(716.113,-50.4544)">
			<title>Dynamic connector.1045</title>
			<path d="M7.09 262.34 L-1.91 262.34 L-1.91 253.9 L0.05 253.9" class="st11"/>
		</g>
		<g id="shape119-87" v:mID="119" v:groupContext="shape" transform="translate(735.201,-87.561)">
			<title>Sheet.119</title>
			<desc>DRCs</desc>
			<v:textBlock v:margins="rect(2,2,2,2)" v:tabSpace="42.5197"/>
			<v:textRect cx="17.0534" cy="259.205" width="34.11" height="12"/>
			<rect x="0" y="253.205" width="34.1069" height="12" class="st6"/>
			<text x="7.68" y="261.9" class="st23" v:langID="2052"><v:paragraph v:horizAlign="1"/><v:tabList/>DRCs</text>		</g>
		<g id="shape120-90" v:mID="120" v:groupContext="shape" transform="translate(802.346,-37.5802)">
			<title>Document.1047</title>
			<v:userDefs>
				<v:ud v:nameU="msvShapeCategories" v:prompt="" v:val="VT4(Icon)"/>
				<v:ud v:nameU="visVersion" v:prompt="" v:val="VT0(15):26"/>
			</v:userDefs>
			<path d="M9.54 252.06 L9.54 250.18 L40.07 250.18 L40.07 252.06 L9.54 252.06 ZM9.54 244.55 L9.54 242.67 L40.07 242.67
						 L40.07 244.55 L9.54 244.55 ZM9.54 237.04 L9.54 235.16 L40.07 235.16 L40.07 237.04 L9.54 237.04 ZM9.54 229.52
						 L9.54 227.65 L40.07 227.65 L40.07 229.52 L9.54 229.52 ZM9.54 222.01 L9.54 220.14 L28.69 220.14 L28.69 222.01
						 L9.54 222.01 ZM45.79 261.45 L45.79 220.14 L34.34 220.14 L34.34 208.87 L3.82 208.87 L3.82 261.45 L45.79 261.45
						 ZM45.31 218.26 L36.25 209.34 L36.25 218.26 L45.31 218.26 ZM37.68 205.11 L49.61 216.85 L49.61 265.2 L0 265.2
						 L0 205.11 L37.68 205.11 Z" class="st24"/>
		</g>
		<g id="shape121-92" v:mID="121" v:groupContext="shape" v:layerMember="0" transform="translate(789.241,-60.5398)">
			<title>Dynamic connector.1048</title>
			<path d="M1.07 258.12 L6.07 258.12" class="st11"/>
		</g>
		<g id="shape122-97" v:mID="122" v:groupContext="shape" transform="translate(801.861,-81.5374)">
			<title>Sheet.122</title>
			<desc>.GDS</desc>
			<v:textBlock v:margins="rect(2,2,2,2)" v:tabSpace="42.5197"/>
			<v:textRect cx="18.9516" cy="259.205" width="37.91" height="12"/>
			<rect x="0" y="253.205" width="37.9033" height="12" class="st6"/>
			<text x="7.2" y="262.8" class="st9" v:langID="2052"><v:paragraph v:horizAlign="1"/><v:tabList/>.GDS</text>		</g>
		<g id="shape123-100" v:mID="123" v:groupContext="shape" transform="translate(8.64338,-13.8988)">
			<title>Sheet.123</title>
			<desc>Verilog</desc>
			<v:textBlock v:margins="rect(2,2,2,2)" v:tabSpace="42.5197"/>
			<v:textRect cx="33.8958" cy="243.058" width="67.8" height="44.2941"/>
			<rect x="0" y="220.911" width="67.7916" height="44.2941" class="st6"/>
			<text x="16.67" y="246.66" class="st9" v:langID="2052"><v:paragraph v:horizAlign="1"/><v:tabList/>Verilog</text>		</g>
		<g id="shape124-103" v:mID="124" v:groupContext="shape" transform="translate(25.0571,-42.5741)">
			<title>Document.1051</title>
			<v:userDefs>
				<v:ud v:nameU="msvShapeCategories" v:prompt="" v:val="VT4(Icon)"/>
				<v:ud v:nameU="visVersion" v:prompt="" v:val="VT0(15):26"/>
			</v:userDefs>
			<path d="M7.66 254.65 L7.66 253.14 L32.17 253.14 L32.17 254.65 L7.66 254.65 ZM7.66 248.62 L7.66 247.11 L32.17 247.11
						 L32.17 248.62 L7.66 248.62 ZM7.66 242.59 L7.66 241.08 L32.17 241.08 L32.17 242.59 L7.66 242.59 ZM7.66 236.56
						 L7.66 235.05 L32.17 235.05 L32.17 236.56 L7.66 236.56 ZM7.66 230.53 L7.66 229.02 L23.04 229.02 L23.04 230.53
						 L7.66 230.53 ZM36.76 262.19 L36.76 229.02 L27.57 229.02 L27.57 219.97 L3.06 219.97 L3.06 262.19 L36.76 262.19
						 ZM36.38 227.51 L29.1 220.35 L29.1 227.51 L36.38 227.51 ZM30.25 216.96 L39.83 226.38 L39.83 265.2 L0 265.2
						 L0 216.96 L30.25 216.96 Z" class="st24"/>
		</g>
		<g id="shape125-105" v:mID="125" v:groupContext="shape" transform="translate(505.955,-233.006)">
			<title>Sheet.125</title>
			<rect x="0" y="239.389" width="59.2441" height="25.8155" class="st25"/>
		</g>
		<g id="shape126-107" v:mID="126" v:groupContext="shape" transform="translate(506.238,-240.107)">
			<title>Sheet.126</title>
			<desc>qTC</desc>
			<v:textBlock v:margins="rect(2,2,2,2)" v:tabSpace="42.5197"/>
			<v:textRect cx="29.0551" cy="259.205" width="58.12" height="12"/>
			<rect x="0" y="253.205" width="58.1102" height="12" class="st6"/>
			<text x="15.14" y="264.6" class="st13" v:langID="2052"><v:paragraph v:horizAlign="1"/><v:tabList/>qTC</text>		</g>
		<g id="shape127-110" v:mID="127" v:groupContext="shape" transform="translate(276.803,-199.972)">
			<title>Sheet.127</title>
			<desc>AQFPgen.lib</desc>
			<v:textBlock v:margins="rect(2,2,2,2)" v:tabSpace="42.5197"/>
			<v:textRect cx="29.0551" cy="254.575" width="58.12" height="21.2598"/>
			<rect x="0" y="243.945" width="58.1102" height="21.2598" class="st26"/>
			<text x="4.26" y="257.57" class="st15" v:langID="1033"><v:paragraph v:horizAlign="1"/><v:tabList/>AQFP<tspan
						class="st10" v:langID="2052">gen.lib</tspan></text>		</g>
		<g id="shape128-116" v:mID="128" v:groupContext="shape" transform="translate(498.868,-198.9)">
			<title>Sheet.128</title>
			<desc>Timing characterization</desc>
			<v:textBlock v:margins="rect(2,2,2,2)" v:tabSpace="42.5197"/>
			<v:textRect cx="35.4331" cy="254.039" width="70.87" height="22.3318"/>
			<rect x="0" y="242.873" width="70.8661" height="22.3318" class="st26"/>
			<text x="21.73" y="251.04" class="st15" v:langID="2052"><v:paragraph v:horizAlign="1"/><v:tabList/>Timing <tspan
						x="2.53" dy="1.2em" class="st10">characterization</tspan></text>		</g>
		<g id="shape129-121" v:mID="129" v:groupContext="shape" v:layerMember="0" transform="translate(528.49,-234.206)">
			<title>Dynamic connector.1059</title>
			<path d="M7.09 266.4 L7.09 271.14" class="st11"/>
		</g>
		<g id="shape130-126" v:mID="130" v:groupContext="shape" v:layerMember="0" transform="translate(440.12,-238.321)">
			<title>Dynamic connector.1060</title>
			<path d="M0 258.12 L59.01 258.12" class="st11"/>
		</g>
		<g id="shape131-131" v:mID="131" v:groupContext="shape" transform="translate(421.37,-199.972)">
			<title>Sheet.131</title>
			<desc>AQFPLib.v</desc>
			<v:textBlock v:margins="rect(2,2,2,2)" v:tabSpace="42.5197"/>
			<v:textRect cx="33.7323" cy="254.575" width="67.47" height="21.2598"/>
			<rect x="0" y="243.945" width="67.4646" height="21.2598" class="st26"/>
			<text x="13.2" y="257.57" class="st15" v:langID="1033"><v:paragraph v:horizAlign="1"/><v:tabList/>AQFP<tspan
						class="st10" v:langID="2052">Lib.v</tspan></text>		</g>
		<g id="shape132-136" v:mID="132" v:groupContext="shape" v:layerMember="0" transform="translate(535.718,-198.9)">
			<title>Dynamic connector.1063</title>
			<path d="M0 265.2 L0 285.71 L88.28 285.71 L88.28 312.73" class="st11"/>
		</g>
		<g id="shape134-141" v:mID="134" v:groupContext="shape" v:layerMember="0" transform="translate(420.278,-233.32)">
			<title>Dynamic connector.1065</title>
			<path d="M7.09 267.29 L7.09 270.25" class="st11"/>
		</g>
		<g id="shape136-146" v:mID="136" v:groupContext="shape" transform="translate(552.549,-86.876)">
			<title>Sheet.136</title>
			<path d="M0 265.2 L49.61 265.2 L49.61 207.61 L0 207.61 L0 265.2 Z" class="st3"/>
		</g>
		<g id="shape137-148" v:mID="137" v:groupContext="shape" transform="translate(555.242,-98.876)">
			<title>Sheet.137</title>
			<desc>Large circuit</desc>
			<v:textBlock v:margins="rect(2,2,2,2)" v:tabSpace="42.5197"/>
			<v:textRect cx="22.1102" cy="246.945" width="44.23" height="36.5197"/>
			<rect x="0" y="228.685" width="44.2205" height="36.5197" class="st27"/>
			<text x="11.03" y="243.94" class="st15" v:langID="1033"><v:paragraph v:horizAlign="1"/><v:tabList/>Large <tspan
						x="9.54" dy="1.2em" class="st10">circuit</tspan></text>		</g>
		<g id="shape139-152" v:mID="139" v:groupContext="shape" transform="translate(554.816,-32.6397)">
			<title>Sheet.139</title>
			<desc>Small circuit</desc>
			<v:textBlock v:margins="rect(2,2,2,2)" v:tabSpace="42.5197"/>
			<v:textRect cx="22.1102" cy="254.575" width="44.23" height="21.2598"/>
			<rect x="0" y="243.945" width="44.2205" height="21.2598" class="st27"/>
			<text x="11.13" y="251.57" class="st15" v:langID="1033"><v:paragraph v:horizAlign="1"/><v:tabList/>Small <tspan
						x="9.54" dy="1.2em" class="st10">circuit</tspan></text>		</g>
		<g id="shape140-156" v:mID="140" v:groupContext="shape" v:layerMember="0" transform="translate(602.155,-89.876)">
			<title>Dynamic connector.1080</title>
			<path d="M0 258.12 L9.19 258.12" class="st11"/>
		</g>
		<g id="shape141-161" v:mID="141" v:groupContext="shape" v:layerMember="0" transform="translate(601.346,-36.1831)">
			<title>Dynamic connector.1081</title>
			<path d="M0 258.12 L10.56 258.12" class="st11"/>
		</g>
		<g id="shape142-166" v:mID="142" v:groupContext="shape" transform="translate(272.096,-247.581)">
			<title>Sheet.142</title>
			<desc>Cell Design</desc>
			<v:textBlock v:margins="rect(2,2,2,2)" v:tabSpace="42.5197"/>
			<v:textRect cx="33.8958" cy="259.205" width="67.8" height="12"/>
			<rect x="0" y="253.205" width="67.7916" height="12" class="st6"/>
			<text x="2.78" y="263.4" class="st7" v:langID="2052"><v:paragraph v:horizAlign="1"/><v:tabList/>Cell Design</text>		</g>
		<g id="shape143-169" v:mID="143" v:groupContext="shape" transform="translate(182.127,-62.5)">
			<title>Sheet.143</title>
			<rect x="0" y="242.873" width="39.8267" height="22.3318" class="st14"/>
		</g>
		<g id="shape148-171" v:mID="148" v:groupContext="shape" transform="translate(174.899,-68.2019)">
			<title>Sheet.148</title>
			<desc>qABC</desc>
			<v:textBlock v:margins="rect(2,2,2,2)" v:tabSpace="42.5197"/>
			<v:textRect cx="24.8031" cy="259.205" width="49.61" height="12"/>
			<rect x="0" y="253.205" width="49.6063" height="12" class="st6"/>
			<text x="13.9" y="262.2" class="st15" v:langID="2052"><v:paragraph v:horizAlign="1"/><v:tabList/>qABC</text>		</g>
		<g id="shape149-174" v:mID="149" v:groupContext="shape" v:layerMember="0" transform="translate(159.227,-67.1153)">
			<title>Dynamic connector.1100</title>
			<path d="M0 258.12 L15.86 258.12" class="st11"/>
		</g>
		<g id="shape150-179" v:mID="150" v:groupContext="shape" v:layerMember="0" transform="translate(329.698,-68.3438)">
			<title>Dynamic connector.1102</title>
			<desc>.json</desc>
			<v:textBlock v:margins="rect(4,4,4,4)" v:tabSpace="42.5197"/>
			<v:textRect cx="9.42992" cy="246.83" width="40" height="17.6036"/>
			<path d="M0 258.12 L12.25 258.12" class="st11"/>
			<rect v:rectContext="textBkgnd" x="1.44732" y="242.03" width="15.9651" height="9.59985" class="st16"/>
			<text x="1.45" y="249.23" class="st17" v:langID="2052"><v:paragraph v:horizAlign="1"/><v:tabList/>.json</text>		</g>
		<g id="shape151-186" v:mID="151" v:groupContext="shape" transform="translate(360.98,-116.675)">
			<title>Sheet.151</title>
			<desc>Routing</desc>
			<v:textBlock v:margins="rect(2,2,2,2)" v:tabSpace="42.5197"/>
			<v:textRect cx="29.0551" cy="259.205" width="58.12" height="12"/>
			<rect x="0" y="253.205" width="58.1102" height="12" class="st6"/>
			<text x="6.96" y="263.4" class="st7" v:langID="2052"><v:paragraph v:horizAlign="1"/><v:tabList/>Routing</text>		</g>
		<g id="shape154-189" v:mID="154" v:groupContext="shape" transform="translate(431.083,-80.0457)">
			<title>Sheet.154</title>
			<desc>.def</desc>
			<v:textBlock v:margins="rect(2,2,2,2)" v:tabSpace="42.5197"/>
			<v:textRect cx="11.4459" cy="259.205" width="22.9" height="12"/>
			<rect x="0" y="253.205" width="22.8918" height="12" class="st6"/>
			<text x="4.95" y="261.6" class="st17" v:langID="2052"><v:paragraph v:horizAlign="1"/><v:tabList/>.def</text>		</g>
		<g id="shape155-192" v:mID="155" v:groupContext="shape" transform="translate(691.522,-71.6161)">
			<title>Sheet.155</title>
			<desc>.def</desc>
			<v:textBlock v:margins="rect(2,2,2,2)" v:tabSpace="42.5197"/>
			<v:textRect cx="11.4459" cy="259.205" width="22.9" height="12"/>
			<rect x="0" y="253.205" width="22.8918" height="12" class="st6"/>
			<text x="4.14" y="261.9" class="st28" v:langID="2052"><v:paragraph v:horizAlign="1"/><v:tabList/>.def</text>		</g>
		<g id="shape156-195" v:mID="156" v:groupContext="shape" v:layerMember="0" transform="translate(535.718,-178.446)">
			<title>Dynamic connector.1108</title>
			<path d="M0 265.2 L-64.18 265.2 A2.3622 2.3622 -180 0 0 -68.91 265.2 L-222.08 265.2 A2.3622 2.3622 -180 0 0 -226.81 265.2
						 L-240.51 265.2 A2.3622 2.3622 -180 0 0 -245.23 265.2 L-337.45 265.2 L-337.45 318.05" class="st11"/>
		</g>
		<g id="shape157-200" v:mID="157" v:groupContext="shape" v:layerMember="0" transform="translate(535.718,-198.9)">
			<title>Dynamic connector.1109</title>
			<path d="M0 265.2 L0 285.66 L-64.18 285.66 A2.3622 2.3622 -180 0 0 -68.91 285.66 L-145.68 285.66 L-145.68 321.4"
					class="st11"/>
		</g>
		<g id="shape158-205" v:mID="158" v:groupContext="shape" v:layerMember="0" transform="translate(469.175,-199.972)">
			<title>Dynamic connector.1110</title>
			<path d="M0 265.2 L0 293.6 L152.46 293.6 A2.3622 2.3622 0 0 1 157.18 293.6 L179.7 293.6 L179.7 313.8" class="st11"/>
		</g>
		<g id="shape161-210" v:mID="161" v:groupContext="shape" transform="translate(517.116,-84.5196)">
			<title>Sheet.161</title>
			<desc>.netdelay</desc>
			<v:textBlock v:margins="rect(2,2,2,2)" v:tabSpace="42.5197"/>
			<v:textRect cx="17.7165" cy="259.205" width="35.44" height="12"/>
			<rect x="0" y="253.205" width="35.4331" height="12" class="st6"/>
			<text x="2.09" y="261.6" class="st17" v:langID="2052"><v:paragraph v:horizAlign="1"/><v:tabList/>.netdelay</text>		</g>
		<g id="shape162-213" v:mID="162" v:groupContext="shape" transform="translate(517.632,-61.0865)">
			<title>Sheet.162</title>
			<desc>.alledges</desc>
			<v:textBlock v:margins="rect(2,2,2,2)" v:tabSpace="42.5197"/>
			<v:textRect cx="17.0534" cy="259.205" width="34.11" height="12"/>
			<rect x="0" y="253.205" width="34.1069" height="12" class="st6"/>
			<text x="2.38" y="261.6" class="st17" v:langID="2052"><v:paragraph v:horizAlign="1"/><v:tabList/>.alledges</text>		</g>
		<g id="shape163-216" v:mID="163" v:groupContext="shape" transform="translate(377.15,-199.972)">
			<title>Sheet.163</title>
			<desc>.LEF</desc>
			<v:textBlock v:margins="rect(2,2,2,2)" v:tabSpace="42.5197"/>
			<v:textRect cx="18.9516" cy="254.575" width="37.91" height="21.2598"/>
			<rect x="0" y="243.945" width="37.9033" height="21.2598" class="st26"/>
			<text x="10.85" y="257.57" class="st15" v:langID="2052"><v:paragraph v:horizAlign="1"/><v:tabList/>.LEF</text>		</g>
		<g id="shape164-220" v:mID="164" v:groupContext="shape" v:layerMember="0" transform="translate(384.845,-233.32)">
			<title>Dynamic connector.1117</title>
			<path d="M7.09 267.29 L7.09 270.25" class="st11"/>
		</g>
		<g id="shape165-225" v:mID="165" v:groupContext="shape" v:layerMember="0" transform="translate(396.952,-199.972)">
			<title>Dynamic connector.1118</title>
			<path d="M0 265.2 L0 279.38 L-90.29 279.38 A2.3622 2.3622 -180 0 0 -95.01 279.38 L-104.1 279.38 L-104.1 321.71"
					class="st11"/>
		</g>
		<g id="shape167-230" v:mID="167" v:groupContext="shape" v:layerMember="0" transform="translate(396.952,-199.972)">
			<title>Dynamic connector.1120</title>
			<path d="M0 265.2 L0 279.38 L69.86 279.38 A2.3622 2.3622 0 1 1 74.59 279.38 L136.4 279.38 A2.3622 2.3622 0 0 1 141.13
						 279.38 L272.12 279.38 L272.12 313.8" class="st11"/>
		</g>
		<g id="shape168-235" v:mID="168" v:groupContext="shape" v:layerMember="0" transform="translate(396.952,-199.972)">
			<title>Dynamic connector.1121</title>
			<path d="M0 265.2 L0 279.38 L69.86 279.38 A2.3622 2.3622 0 1 1 74.59 279.38 L136.4 279.38 A2.3622 2.3622 0 0 1 141.13
						 279.38 L355.3 279.38 L355.3 313.8" class="st11"/>
		</g>
		<g id="shape171-240" v:mID="171" v:groupContext="shape" transform="translate(455.867,-15.1942)">
			<title>Sheet.171</title>
			<rect x="0" y="144.732" width="60.8906" height="120.472" class="st29"/>
		</g>
		<g id="shape172-242" v:mID="172" v:groupContext="shape" transform="translate(468.596,-58.2932)">
			<title>Sheet.172</title>
			<desc>qAQFPSTA</desc>
			<v:textBlock v:margins="rect(2,2,2,2)" v:tabSpace="42.5197"/>
			<v:textRect cx="17.7165" cy="254.575" width="35.44" height="21.2598"/>
			<rect x="0" y="243.945" width="35.4331" height="21.2598" class="st18"/>
			<text x="3.95" y="251.57" class="st15" v:langID="2052"><v:paragraph v:horizAlign="1"/><v:tabList/>qAQFP<tspan x="10.09"
						dy="1.2em" class="st10" v:langID="1033">STA</tspan></text>		</g>
		<g id="shape173-246" v:mID="173" v:groupContext="shape" transform="translate(458.648,-111.136)">
			<title>Sheet.173</title>
			<desc>Timing &#38; Clocking</desc>
			<v:textBlock v:margins="rect(2,2,2,2)" v:tabSpace="42.5197"/>
			<v:textRect cx="29.0551" cy="259.205" width="58.12" height="12"/>
			<rect x="0" y="253.205" width="58.1102" height="12" class="st6"/>
			<text x="3.51" y="255" class="st7" v:langID="1033"><v:paragraph v:horizAlign="1"/><v:tabList/>Timing &#38; <tspan
						x="5.3" dy="1.2em" class="st10">Clocking</tspan></text>		</g>
		<g id="shape174-250" v:mID="174" v:groupContext="shape" v:layerMember="0" transform="translate(431.083,-67.5814)">
			<title>Dynamic connector</title>
			<path d="M0 258.12 L17.74 258.12" class="st11"/>
		</g>
		<g id="shape177-255" v:mID="177" v:groupContext="shape" transform="translate(336.938,-199.972)">
			<title>Sheet.177</title>
			<desc>Max.csv</desc>
			<v:textBlock v:margins="rect(2,2,2,2)" v:tabSpace="42.5197"/>
			<v:textRect cx="18.9516" cy="254.575" width="37.91" height="21.2598"/>
			<rect x="0" y="243.945" width="37.9033" height="21.2598" class="st26"/>
			<text x="2.53" y="257.57" class="st15" v:langID="1033"><v:paragraph v:horizAlign="1"/><v:tabList/>Max.csv</text>		</g>
		<g id="shape179-259" v:mID="179" v:groupContext="shape" v:layerMember="0" transform="translate(346.981,-233.32)">
			<title>Dynamic connector.179</title>
			<path d="M5.26 267.29 L5.26 271.98 L8.91 271.98 L8.91 277.29" class="st30"/>
		</g>
		<g id="shape180-265" v:mID="180" v:groupContext="shape" v:layerMember="0" transform="translate(340.12,-233.377)">
			<title>Dynamic connector.180</title>
			<path d="M0 267.23 L-36.95 267.23 L-36.95 270.31" class="st11"/>
		</g>
		<g id="shape182-270" v:mID="182" v:groupContext="shape" v:layerMember="0" transform="translate(355.89,-199.972)">
			<title>Dynamic connector.182</title>
			<path d="M0 265.2 L0 279.38 L-44.62 279.38 L-44.62 321.71" class="st11"/>
		</g>
		<g id="shape185-275" v:mID="185" v:groupContext="shape" v:layerMember="0" transform="translate(304.299,-199.972)">
			<title>Dynamic connector.185</title>
			<path d="M0 265.2 L0 282.92 L-9.09 282.92 A2.3622 2.3622 -180 0 0 -13.81 282.92 L-172.35 282.92 L-172.35 339.58"
					class="st11"/>
		</g>
		<g id="shape189-280" v:mID="189" v:groupContext="shape" v:layerMember="0" transform="translate(516.758,-82.063)">
			<title>Dynamic connector.189</title>
			<path d="M0 268.32 L58.95 268.32 L58.95 269.22" class="st11"/>
		</g>
		<g id="shape190-285" v:mID="190" v:groupContext="shape" v:layerMember="0" transform="translate(516.758,-75.8238)">
			<title>Dynamic connector.190</title>
			<path d="M0 262.08 L58.95 262.08 L58.95 261.19" class="st11"/>
		</g>
	</g>
</svg>
